<?xml version="1.0" standalone="no"?>
<!DOCTYPE svg PUBLIC "-//W3C//DTD SVG 20010904//EN"
 "http://www.w3.org/TR/2001/REC-SVG-20010904/DTD/svg10.dtd">
<svg version="1.0" xmlns="http://www.w3.org/2000/svg"
 width="250.000000pt" height="250.000000pt" viewBox="0 0 250.000000 250.000000"
 preserveAspectRatio="xMidYMid meet">
<metadata>
Created by potrace 1.14, written by Peter Selinger 2001-2017
</metadata>
<g transform="translate(0.000000,250.000000) scale(0.100000,-0.100000)"
fill="#000000" stroke="none">
<path d="M260 1316 c0 -779 3 -1187 10 -1191 6 -3 10 -17 10 -31 0 -13 4 -32
9 -42 5 -9 12 -25 15 -34 5 -17 60 -18 961 -18 939 0 955 0 955 19 0 11 4 23
10 26 7 4 10 425 10 1231 l0 1224 -990 0 -990 0 0 -1184z m1070 169 c18 -22
-2 -44 -24 -26 -10 8 -16 9 -21 1 -9 -14 -42 -13 -48 3 -4 10 -7 10 -18 0 -16
-15 -49 -17 -49 -3 0 6 11 10 24 10 13 0 26 7 30 15 8 21 89 20 106 0z m256
-109 c10 -8 16 -18 12 -22 -4 -4 -15 -1 -24 6 -13 12 -17 11 -24 -1 -7 -10
-12 -11 -21 -2 -28 28 21 45 57 19z m129 -276 c3 -5 1 -10 -4 -10 -6 0 -11 5
-11 10 0 6 2 10 4 10 3 0 8 -4 11 -10z m-54 -25 c0 -5 -9 -11 -21 -13 -11 -2
-20 -8 -20 -13 0 -5 -9 -9 -20 -9 -11 0 -20 5 -20 10 0 6 9 10 19 10 10 0 22
7 25 16 6 16 37 16 37 -1z m-111 -44 c0 -6 -4 -13 -10 -16 -5 -3 -10 1 -10 9
0 9 5 16 10 16 6 0 10 -4 10 -9z m-100 -51 c0 -5 -5 -10 -12 -10 -6 0 -20 -7
-30 -17 -17 -15 -18 -15 -18 10 0 23 4 27 30 27 17 0 30 -4 30 -10z m-105 -40
c-10 -11 -22 -17 -26 -14 -12 7 12 33 30 34 11 0 10 -5 -4 -20z m-65 -10 c0
-5 -4 -10 -10 -10 -5 0 -10 -7 -10 -15 0 -8 -4 -15 -10 -15 -14 0 -13 18 3 35
14 17 27 19 27 5z m-63 -44 c-4 -9 -16 -16 -27 -16 -24 0 -25 8 -3 32 19 21
40 9 30 -16z m-77 -26 c0 -5 -4 -10 -10 -10 -5 0 -10 5 -10 10 0 6 5 10 10 10
6 0 10 -4 10 -10z m-237 -80 c21 -25 22 -37 2 -20 -12 10 -18 10 -29 1 -17
-14 -31 2 -22 24 8 21 29 19 49 -5z m-143 -251 c0 -12 7 -19 18 -19 29 0 32
-10 9 -33 -13 -13 -22 -17 -25 -9 -2 7 -12 12 -22 12 -22 0 -39 22 -22 28 7 2
12 12 12 21 0 10 3 21 6 24 11 10 24 -3 24 -24z"/>
</g>
</svg>
